<svg xmlns="http://www.w3.org/2000/svg"  viewBox="0 0 50 50" width="50px" height="50px" baseProfile="basic"><polygon fill="#6189ff" points="16,2.483 10.002,5.946 10,5.945 10,33.66 34.001,47.516 40.001,44.052 40,16.34"/><polygon fill="#577be6" points="40,16.34 16,2.483 10,5.947 34,19.804"/><polygon fill="#4460b3" points="34,19.804 34.001,47.516 40.001,44.052 40,16.34"/><polygon fill="#e6e6e6" points="22,40.588 22,31.351 19,29.619 19,25 22,26.732 22,20.959 25,19.226 30,22.113 30,26.732 26,24.423 26,29.041 30,31.351 29,35.392 26,33.66 26,42.898"/></svg>